<svg width="80" height="80" viewBox="0 0 80 80" fill="none" xmlns="http://www.w3.org/2000/svg">
<circle opacity="0.1" cx="40" cy="40" r="40" fill="#FFA149"/>
<path d="M38.6667 48.0001H41.3334V45.3334H38.6667V48.0001ZM40.0001 26.6667C32.6401 26.6667 26.6667 32.6401 26.6667 40.0001C26.6667 47.3601 32.6401 53.3334 40.0001 53.3334C47.3601 53.3334 53.3334 47.3601 53.3334 40.0001C53.3334 32.6401 47.3601 26.6667 40.0001 26.6667ZM40.0001 50.6667C34.1201 50.6667 29.3334 45.8801 29.3334 40.0001C29.3334 34.1201 34.1201 29.3334 40.0001 29.3334C45.8801 29.3334 50.6667 34.1201 50.6667 40.0001C50.6667 45.8801 45.8801 50.6667 40.0001 50.6667ZM40.0001 32.0001C37.0534 32.0001 34.6667 34.3867 34.6667 37.3334H37.3334C37.3334 35.8667 38.5334 34.6667 40.0001 34.6667C41.4667 34.6667 42.6667 35.8667 42.6667 37.3334C42.6667 40.0001 38.6667 39.6667 38.6667 44.0001H41.3334C41.3334 41.0001 45.3334 40.6667 45.3334 37.3334C45.3334 34.3867 42.9467 32.0001 40.0001 32.0001Z" fill="#FFA049"/>
</svg>
